<?xml version="1.0" standalone="no"?>
<!DOCTYPE svg PUBLIC "-//W3C//DTD SVG 20010904//EN"
 "http://www.w3.org/TR/2001/REC-SVG-20010904/DTD/svg10.dtd">
<svg version="1.0" xmlns="http://www.w3.org/2000/svg"
 width="640.000000pt" height="640.000000pt" viewBox="0 0 640.000000 640.000000"
 preserveAspectRatio="xMidYMid meet">
<metadata>
Created by potrace 1.14, written by Peter Selinger 2001-2017
</metadata>
<g transform="translate(0.000000,640.000000) scale(0.100000,-0.100000)"
fill="#000000" stroke="none">
<path d="M2865 4914 c-280 -27 -417 -51 -575 -104 -321 -107 -675 -351 -835
-575 -96 -134 -168 -338 -151 -426 3 -21 18 -53 31 -73 l25 -37 -28 -41 c-22
-34 -27 -53 -27 -103 0 -52 5 -69 29 -103 l28 -41 -20 -28 c-51 -72 -48 -164
7 -234 l31 -38 -25 -36 c-43 -64 -42 -144 1 -211 14 -20 12 -26 -16 -66 -43
-61 -50 -130 -20 -192 12 -25 26 -46 31 -46 6 0 -3 -21 -18 -47 -43 -74 -36
-159 20 -220 l20 -22 -26 -30 c-55 -66 -60 -151 -13 -221 14 -22 40 -46 56
-55 l30 -16 -25 -33 c-59 -77 -70 -197 -27 -282 24 -46 83 -104 132 -130 34
-18 98 -19 1685 -22 1839 -3 1712 -7 1797 67 61 54 92 125 91 211 0 68 -14
106 -60 168 l-25 33 25 19 c32 26 67 97 67 138 0 40 -24 99 -51 128 l-21 22
22 22 c55 55 64 138 24 219 -24 46 -25 54 -11 69 47 55 46 153 -4 222 l-30 41
31 26 c74 62 79 156 11 230 l-29 32 26 35 c36 51 41 129 13 182 -12 21 -26 46
-33 55 -9 13 -7 21 9 38 22 24 43 84 43 125 0 35 -23 89 -50 116 -20 20 -20
23 -6 39 23 26 46 87 46 124 0 57 -39 188 -80 272 -158 319 -621 635 -1090
744 -178 42 -301 52 -655 56 -187 1 -358 1 -380 -1z m777 -99 c332 -39 578
-127 845 -304 127 -84 226 -167 217 -182 -3 -5 1 -6 9 -4 16 7 94 -81 160
-178 50 -75 106 -213 91 -226 -37 -33 -342 -102 -537 -121 -191 -20 -765 -8
-942 19 -831 128 -1353 425 -1226 696 58 123 204 205 500 281 l126 32 315 1
c220 1 354 -3 442 -14z m1292 -1167 c51 -23 74 -96 47 -147 -21 -38 -59 -48
-211 -55 -80 -3 -244 -15 -365 -26 -426 -39 -764 -43 -1006 -10 -46 6 -158 27
-249 46 -359 77 -504 53 -655 -107 -35 -37 -82 -99 -105 -138 -58 -98 -85
-125 -109 -111 -30 16 -55 57 -106 173 -62 141 -112 190 -178 173 -41 -10 -75
-45 -113 -114 -91 -166 -95 -167 -191 -39 -78 104 -125 141 -198 157 -66 15
-91 32 -105 74 -9 29 -8 41 6 71 33 69 -109 64 1791 65 1281 0 1729 -3 1747
-12z m-3134 -580 c0 -7 14 -42 30 -76 38 -80 40 -133 5 -167 -28 -29 -45 -31
-84 -10 -47 24 -47 56 -4 166 35 90 53 120 53 87z m3216 -74 c9 -34 -16 -59
-133 -135 -163 -105 -184 -108 -281 -36 -107 78 -187 85 -322 26 -64 -28 -86
-33 -155 -33 -67 1 -90 5 -140 29 -52 25 -72 29 -150 29 -82 1 -96 -2 -160
-33 -54 -26 -87 -35 -145 -38 -69 -5 -82 -3 -150 28 -66 29 -85 33 -160 33
-81 0 -89 -2 -167 -43 -75 -40 -87 -43 -132 -38 -28 3 -80 22 -118 42 -78 41
-155 53 -218 36 -23 -6 -74 -32 -114 -58 -91 -58 -141 -62 -218 -17 -153 88
-203 101 -278 70 l-35 -15 4 42 c3 36 8 44 37 59 49 26 97 22 160 -11 137 -74
164 -85 214 -85 40 0 61 6 100 32 108 69 127 76 196 77 57 0 75 -5 143 -40 69
-35 87 -40 145 -40 58 1 74 5 134 39 101 57 163 60 284 12 123 -48 203 -50
295 -7 130 61 214 65 329 15 53 -23 78 -28 144 -28 69 0 93 5 172 37 51 20
108 37 127 37 51 0 114 -26 172 -71 95 -73 155 -62 329 60 39 27 73 49 77 50
4 0 11 -10 14 -25z m-3517 -34 c30 -5 71 -15 92 -22 38 -11 39 -13 39 -56 0
-38 -2 -43 -17 -37 -10 4 -46 13 -81 20 -79 17 -107 35 -122 79 -14 44 -5 64
19 42 10 -9 41 -20 70 -26z m2481 -760 c27 -39 69 -60 116 -60 30 0 45 8 82
45 l45 45 337 0 c205 0 349 -4 367 -10 64 -23 85 -120 35 -169 -27 -27 -32
-28 -167 -35 -77 -4 -237 -16 -355 -26 -640 -57 -906 -50 -1305 36 -269 58
-382 56 -509 -8 -84 -42 -148 -107 -232 -234 -40 -61 -80 -114 -89 -118 -37
-14 -66 28 -148 215 -30 69 -79 126 -116 134 -38 8 -93 -16 -118 -51 -12 -16
-37 -60 -58 -99 -65 -123 -84 -126 -155 -28 -88 123 -131 158 -222 182 -71 19
-102 51 -102 106 0 36 31 80 69 95 11 5 579 9 1262 9 l1242 1 21 -30z"/>
<path d="M3096 4515 c-9 -26 -7 -32 5 -12 6 10 9 21 6 23 -2 3 -7 -2 -11 -11z"/>
<path d="M3045 4379 c-4 -6 -5 -12 -2 -15 2 -3 7 2 10 11 7 17 1 20 -8 4z"/>
<path d="M4602 4331 c-12 -10 -21 -29 -21 -42 1 -21 2 -21 6 -4 7 29 23 45 44
45 25 0 24 -9 -7 -41 -27 -28 -25 -50 4 -48 11 0 12 3 5 6 -19 7 -16 21 12 49
21 21 23 29 14 40 -16 19 -32 18 -57 -5z"/>
<path d="M3546 4323 c-6 -14 -5 -15 5 -6 7 7 10 15 7 18 -3 3 -9 -2 -12 -12z"/>
<path d="M3260 4305 c0 -5 5 -17 10 -25 5 -8 10 -10 10 -5 0 6 -5 17 -10 25
-5 8 -10 11 -10 5z"/>
<path d="M4668 4269 c-9 -16 -14 -29 -9 -29 9 0 36 48 30 54 -2 3 -12 -9 -21
-25z"/>
<path d="M3630 4276 c0 -2 8 -10 18 -17 15 -13 16 -12 3 4 -13 16 -21 21 -21
13z"/>
<path d="M4548 4268 c-7 -17 29 -68 47 -68 5 0 -1 10 -12 23 -12 12 -23 31
-25 42 -3 18 -4 18 -10 3z"/>
<path d="M4500 4230 c0 -5 5 -10 10 -10 6 0 10 5 10 10 0 6 -4 10 -10 10 -5 0
-10 -4 -10 -10z"/>
<path d="M4538 4190 c12 -11 26 -20 33 -20 6 0 0 9 -14 20 -14 11 -29 20 -33
20 -4 0 2 -9 14 -20z"/>
<path d="M4476 4193 c-10 -10 -7 -23 5 -23 6 0 24 -13 40 -30 25 -24 28 -33
19 -49 -14 -28 -13 -36 5 -21 8 7 15 21 15 31 0 20 -74 101 -84 92z"/>
<path d="M4440 4169 c0 -5 5 -7 10 -4 6 3 10 8 10 11 0 2 -4 4 -10 4 -5 0 -10
-5 -10 -11z"/>
<path d="M4420 4139 c0 -5 5 -7 10 -4 6 3 10 8 10 11 0 2 -4 4 -10 4 -5 0 -10
-5 -10 -11z"/>
<path d="M4435 4100 c22 -25 79 -24 81 0 0 9 -1 10 -3 3 -6 -18 -48 -16 -67 2
-22 23 -32 18 -11 -5z"/>
<path d="M4357 4082 c-23 -25 -22 -34 13 -67 17 -16 30 -24 30 -19 0 5 -9 16
-20 24 -23 17 -27 58 -6 66 8 3 25 0 38 -7 21 -11 22 -11 9 4 -18 22 -44 21
-64 -1z"/>
<path d="M4435 4050 c3 -5 8 -10 11 -10 2 0 4 5 4 10 0 6 -5 10 -11 10 -5 0
-7 -4 -4 -10z"/>
<path d="M4285 4010 c-8 -13 5 -13 25 0 13 8 13 10 -2 10 -9 0 -20 -4 -23 -10z"/>
<path d="M4336 4003 c19 -15 23 -40 8 -62 -8 -11 -11 -21 -6 -21 5 0 15 12 22
26 15 27 6 54 -21 62 -9 2 -10 1 -3 -5z"/>
<path d="M4262 3947 c13 -13 31 -29 41 -36 14 -12 17 -11 17 3 0 10 -4 15 -9
11 -5 -3 -18 6 -29 20 -11 14 -25 25 -31 25 -7 0 -2 -10 11 -23z"/>
</g>
</svg>
